<svg width="69" height="56" viewBox="0 0 69 56" fill="none" xmlns="http://www.w3.org/2000/svg">
<g clip-path="url(#clip0_1374_36)">
<path d="M39.1339 16.8835L37.8239 15.8835C37.6192 15.7177 37.3573 15.6394 37.0952 15.6656C36.833 15.6918 36.5918 15.8204 36.4239 16.0235L18.2939 36.8435L18.5739 37.1535L23.0639 33.0135C22.9143 32.9533 22.7905 32.8425 22.714 32.7005C22.6376 32.5585 22.6132 32.3942 22.6453 32.2361C22.6774 32.078 22.7639 31.9362 22.8897 31.8352C23.0155 31.7343 23.1727 31.6806 23.3339 31.6835C23.4794 31.6835 23.621 31.7301 23.738 31.8165C23.855 31.9028 23.9412 32.0245 23.9839 32.1635L29.9039 26.6735C29.9946 26.6004 30.1075 26.5606 30.2239 26.5606C30.3404 26.5606 30.4533 26.6004 30.5439 26.6735L30.8439 26.8935C30.9454 26.9662 31.0705 26.9983 31.1945 26.9835C31.3185 26.9687 31.4324 26.9081 31.5139 26.8135L39.2539 18.1335C39.3362 18.0473 39.399 17.9444 39.4379 17.8318C39.4769 17.7193 39.4912 17.5996 39.4798 17.481C39.4684 17.3624 39.4316 17.2477 39.372 17.1446C39.3123 17.0415 39.2311 16.9524 39.1339 16.8835Z" fill="#303030"/>
<path d="M47.6546 22.7434C43.6871 25.5664 39.2425 27.6498 34.5346 28.8934C29.8621 30.0817 25.0809 30.7921 20.2646 31.0134C20.3616 31.7236 20.536 32.4211 20.7846 33.0934C23.5046 35.5534 43.9846 31.3534 47.9846 26.4934C48.8346 25.4834 47.6546 22.7434 47.6546 22.7434ZM23.3346 33.0134C23.2002 33.0134 23.0687 32.9735 22.9569 32.8988C22.845 32.8241 22.7579 32.7179 22.7064 32.5936C22.6549 32.4694 22.6415 32.3327 22.6677 32.2007C22.694 32.0688 22.7587 31.9477 22.8538 31.8526C22.9489 31.7575 23.0701 31.6927 23.202 31.6665C23.3339 31.6402 23.4706 31.6537 23.5949 31.7052C23.7191 31.7566 23.8253 31.8438 23.9 31.9556C23.9748 32.0674 24.0146 32.1989 24.0146 32.3334C24.016 32.4231 23.9993 32.5121 23.9656 32.5952C23.9319 32.6783 23.8819 32.7538 23.8185 32.8172C23.7551 32.8807 23.6796 32.9307 23.5965 32.9644C23.5133 32.9981 23.4243 33.0148 23.3346 33.0134Z" fill="#303030"/>
<path d="M3.98467 21.3034L4.14467 20.6134L6.74467 21.2034C6.95918 21.5996 7.09181 22.0349 7.13467 22.4834C7.1843 22.9584 7.15388 23.4384 7.04467 23.9034C6.91523 24.5486 6.61868 25.1486 6.18467 25.6434C5.77176 26.1105 5.23935 26.4562 4.64467 26.6434C4.03177 26.8324 3.37988 26.8565 2.75467 26.7134C2.12809 26.578 1.55054 26.2737 1.08467 25.8334C0.625944 25.4104 0.29654 24.866 0.134674 24.2634C-0.0448914 23.6088 -0.0448914 22.9179 0.134674 22.2634C0.242152 21.7735 0.435101 21.3063 0.704674 20.8834C0.959813 20.4987 1.30252 20.18 1.70467 19.9534L2.06467 20.5034C1.71998 20.715 1.42409 20.9973 1.19656 21.3318C0.969018 21.6662 0.815001 22.045 0.744674 22.4434C0.620661 22.9607 0.630988 23.5012 0.774674 24.0134C0.909044 24.4997 1.17557 24.9393 1.54467 25.2834C1.92405 25.6501 2.39871 25.903 2.91467 26.0134C3.415 26.1538 3.94435 26.1538 4.44467 26.0134C4.92396 25.8551 5.35444 25.5762 5.69467 25.2034C6.04432 24.8007 6.28527 24.3153 6.39467 23.7934C6.55921 23.1602 6.51716 22.491 6.27467 21.8834L3.98467 21.3034Z" fill="#303030"/>
<path d="M9.6443 15.0135L7.3143 18.1235L8.3143 19.9135L7.8543 20.5335L4.1543 13.7835L4.5843 13.1935L12.1143 14.8135L11.6443 15.4335L9.6443 15.0135ZM8.9843 14.8535L4.9843 13.9535L6.9843 17.5435L8.9843 14.8535Z" fill="#303030"/>
<path d="M8.98438 8.5634L9.58438 8.1134L13.3944 13.2134L16.5344 10.8634L16.9144 11.3734L13.1844 14.1634L8.98438 8.5634Z" fill="#303030"/>
<path d="M15.2842 4.39338L15.9542 4.09338L18.5942 9.87338L22.1642 8.25338L22.4242 8.83338L18.1842 10.7634L15.2842 4.39338Z" fill="#303030"/>
<path d="M28.4643 6.69346L28.6143 7.32346L23.7943 8.45346L22.1943 1.63346L26.8743 0.543457L27.0143 1.16346L23.0143 2.09346L23.5843 4.51346L27.1043 3.68346L27.2543 4.30346L23.7243 5.12346L24.3243 7.65346L28.4643 6.69346Z" fill="#303030"/>
<path d="M35.3342 6.9434L33.6642 4.7434C33.4777 4.75371 33.2907 4.75371 33.1042 4.7434L31.2242 4.8034L31.2942 7.0234H30.5542L30.3242 0.0233964L32.9842 0.0133964C33.7363 -0.0560617 34.4884 0.146149 35.1042 0.583396C35.3637 0.79239 35.5724 1.05761 35.7145 1.35903C35.8565 1.66045 35.9282 1.9902 35.9242 2.3234C35.9534 2.81759 35.8238 3.30816 35.5542 3.7234C35.2668 4.12195 34.8608 4.41946 34.3942 4.5734L36.1442 6.9134L35.3342 6.9434ZM34.6342 3.6534C34.814 3.48874 34.9534 3.28497 35.0419 3.05782C35.1303 2.83067 35.1653 2.58624 35.1442 2.3434C35.1494 2.09927 35.0989 1.85716 34.9967 1.6354C34.8945 1.41365 34.7432 1.21804 34.5542 1.0634C34.0933 0.750875 33.5391 0.606134 32.9842 0.653396L31.0842 0.723396L31.2042 4.2234L33.0642 4.1634C33.6314 4.18438 34.1877 4.00369 34.6342 3.6534Z" fill="#303030"/>
<path d="M40.624 5.08343L40.264 7.47343L39.534 7.36343L39.904 5.01343L37.834 0.0134277L38.614 0.133428L40.384 4.39343L43.384 0.863428L44.084 1.01343L40.624 5.08343Z" fill="#303030"/>
<path d="M50.5142 4.66348L51.3842 5.79348L51.0042 6.09348L50.1342 4.93348L49.5842 6.24348L49.1642 6.06348L49.7242 4.75348L48.2842 4.94348V4.46348L49.7042 4.30348L48.8242 3.17348L49.2142 2.87348L49.9842 4.01348L50.5242 2.69348L50.9542 2.87348L50.4442 4.21348L51.8842 4.01348V4.50348L50.5142 4.66348Z" fill="#303030"/>
<path d="M53.8548 12.7235C53.6187 12.3594 53.4714 11.9449 53.4248 11.5135L54.0148 11.2535C54.0591 11.6499 54.1887 12.032 54.3948 12.3735C54.6182 12.7564 54.9096 13.0953 55.2548 13.3735C55.6112 13.7148 56.0661 13.9352 56.5548 14.0035C56.7314 14.0198 56.9093 13.9929 57.0731 13.9249C57.2369 13.8569 57.3817 13.75 57.4948 13.6135C57.5777 13.522 57.641 13.4144 57.6805 13.2974C57.7201 13.1804 57.7352 13.0565 57.7248 12.9335C57.6917 12.6897 57.6101 12.4551 57.4848 12.2435C57.2969 11.9365 57.0933 11.6395 56.8748 11.3535C56.6086 11.0047 56.3679 10.637 56.1548 10.2535C55.9919 9.96639 55.9026 9.64345 55.8948 9.31347C55.8941 8.94289 56.0334 8.58573 56.2848 8.31347C56.5027 8.04959 56.7903 7.85212 57.1148 7.74347C57.4774 7.63873 57.8622 7.63873 58.2248 7.74347C58.692 7.89624 59.1238 8.14106 59.4948 8.46347C59.8027 8.71954 60.0751 9.01547 60.3048 9.34347C60.5172 9.64763 60.6762 9.98582 60.7748 10.3435L60.2048 10.6435C60.1054 10.3101 59.9571 9.99334 59.7648 9.70347C59.5732 9.44461 59.3479 9.21255 59.0948 9.01347C58.7437 8.67371 58.2902 8.4593 57.8048 8.40347C57.6264 8.38855 57.4471 8.41821 57.283 8.48978C57.119 8.56135 56.9752 8.67258 56.8648 8.81347C56.7798 8.90355 56.7152 9.01096 56.6755 9.12832C56.6358 9.24569 56.6219 9.37024 56.6348 9.49347C56.6582 9.74564 56.7404 9.98881 56.8748 10.2035C57.0148 10.4335 57.2148 10.7335 57.4848 11.0935C57.7525 11.4342 57.9932 11.7953 58.2048 12.1735C58.3712 12.4596 58.464 12.7826 58.4748 13.1135C58.4755 13.484 58.3362 13.8412 58.0848 14.1135C57.8661 14.381 57.5742 14.579 57.2448 14.6835C56.8829 14.7928 56.4967 14.7928 56.1348 14.6835C55.6644 14.5312 55.2292 14.2864 54.8548 13.9635C54.4511 13.6122 54.1126 13.1924 53.8548 12.7235Z" fill="#303030"/>
<path d="M63.9141 14.1835L62.5041 12.1835L63.0241 11.8135L66.2741 16.4535L65.7541 16.8235L64.3441 14.8235L59.1241 18.4735L58.7041 17.8635L63.9141 14.1835Z" fill="#303030"/>
<path d="M61.6746 22.4034C61.8531 21.799 62.2 21.258 62.6746 20.8434C63.1389 20.4276 63.7045 20.1413 64.3146 20.0134C64.9365 19.8706 65.585 19.8948 66.1946 20.0834C66.7829 20.2779 67.3103 20.6226 67.7246 21.0834C68.1554 21.579 68.4485 22.179 68.5746 22.8234C68.7402 23.4561 68.7402 24.1207 68.5746 24.7534C68.3912 25.3555 68.0451 25.8953 67.5746 26.3134C67.0974 26.7405 66.5179 27.0367 65.8923 27.1734C65.2667 27.3101 64.6164 27.2825 64.0046 27.0934C63.4118 26.9083 62.882 26.5621 62.4746 26.0934C62.0458 25.6004 61.7528 25.0041 61.6246 24.3634C61.4718 23.7167 61.4891 23.0415 61.6746 22.4034ZM62.9846 25.5834C63.3185 25.9636 63.7511 26.244 64.2346 26.3934C64.7329 26.5379 65.2595 26.5551 65.7662 26.4433C66.2729 26.3315 66.7434 26.0942 67.1346 25.7534C67.5037 25.4138 67.7763 24.9825 67.9246 24.5034C68.064 23.9975 68.0777 23.4652 67.9644 22.9527C67.8511 22.4403 67.6143 21.9634 67.2746 21.5634C66.926 21.1814 66.4801 20.9014 65.9846 20.7534C65.48 20.6194 64.9492 20.6194 64.4446 20.7534C63.9355 20.8511 63.4641 21.0902 63.0846 21.4434C62.7121 21.7842 62.4391 22.2197 62.2946 22.7034C62.1588 23.2111 62.1588 23.7457 62.2946 24.2534C62.4041 24.7495 62.6421 25.2082 62.9846 25.5834Z" fill="#303030"/>
<path d="M60.9146 34.0134L63.5046 33.0134C63.5046 32.8334 63.5646 32.6534 63.6146 32.4634L64.1046 30.6534L61.9846 30.1034L62.1746 29.3934L68.9346 31.2034L68.2546 33.7334C68.1014 34.4717 67.6902 35.1311 67.0946 35.5934C66.821 35.7835 66.5071 35.9076 66.1774 35.9562C65.8478 36.0048 65.5114 35.9765 65.1946 35.8734C64.712 35.7688 64.2796 35.5026 63.9687 35.119C63.6578 34.7354 63.487 34.2572 63.4846 33.7634L60.7246 34.7634L60.9146 34.0134ZM64.2646 34.2934C64.3818 34.506 64.5407 34.6926 64.7318 34.8421C64.9229 34.9917 65.1423 35.101 65.3768 35.1636C65.6112 35.2262 65.8559 35.2407 66.0961 35.2063C66.3363 35.1719 66.5671 35.0893 66.7746 34.9634C67.216 34.6089 67.5172 34.1093 67.6246 33.5534L68.1046 31.7534L64.7146 30.8434L64.2346 32.6434C64.0501 33.1798 64.0607 33.7641 64.2646 34.2934Z" fill="#303030"/>
<path d="M57.3245 40.4534L56.8145 40.0634L59.8145 36.1134L65.3945 40.3434L62.4944 44.1734L61.9845 43.7834L64.4344 40.5534L62.4345 39.0434L60.2444 41.9334L59.7444 41.5534L61.9845 38.6634L59.9145 37.0934L57.3245 40.4534Z" fill="#303030"/>
<path d="M54.9847 48.4235L53.5547 48.5035V48.0235L54.9847 48.0135L54.2147 46.8235L54.6047 46.5735L55.3647 47.7735L55.9847 46.4335L56.4147 46.6635L55.7347 47.9235L57.1647 47.8435V48.3335H55.7147L56.4847 49.5235L56.0947 49.7735L55.3347 48.5735L54.6747 49.8735L54.2547 49.6335L54.9847 48.4235Z" fill="#303030"/>
<path d="M41.9846 47.6235L43.1946 48.2935C43.3975 47.9038 43.6806 47.5615 44.0253 47.2892C44.37 47.0168 44.7686 46.8206 45.1946 46.7135C45.592 46.5895 46.01 46.5453 46.4246 46.5835C46.7843 46.6111 47.1298 46.7355 47.4246 46.9435C47.6911 47.1443 47.8871 47.4244 47.9846 47.7435C48.1051 48.1382 48.0839 48.5627 47.9246 48.9435C47.6737 49.4608 47.3354 49.9311 46.9246 50.3335C47.2543 50.5106 47.5601 50.7291 47.8346 50.9835C48.0232 51.1784 48.1636 51.4147 48.2446 51.6735C48.2959 51.8752 48.299 52.0862 48.2539 52.2894C48.2087 52.4926 48.1165 52.6824 47.9846 52.8435C47.7176 53.2281 47.3193 53.5019 46.8646 53.6135C46.4653 53.7657 46.0239 53.7657 45.6246 53.6135C45.447 53.5371 45.2896 53.4206 45.1647 53.2731C45.0398 53.1256 44.9507 52.9512 44.9046 52.7635C44.7998 52.4334 44.8248 52.0757 44.9746 51.7635C45.2041 51.3088 45.5046 50.8937 45.8646 50.5335L43.4546 49.1935C43.3627 49.6644 43.3424 50.1465 43.3946 50.6235H42.7846C42.7435 50.0361 42.8113 49.4462 42.9846 48.8835L41.7246 48.1835L41.9846 47.6235ZM43.7246 48.6235L46.3746 50.0935C46.7219 49.7618 47.0094 49.3728 47.2246 48.9435C47.3345 48.6535 47.3345 48.3334 47.2246 48.0435C47.1793 47.8702 47.0915 47.711 46.9693 47.58C46.8472 47.4491 46.6943 47.3506 46.5246 47.2935C46.1095 47.1532 45.6598 47.1532 45.2446 47.2935C44.9054 47.383 44.5899 47.5457 44.3203 47.7703C44.0508 47.9949 43.8338 48.2759 43.6846 48.5935L43.7246 48.6235ZM47.4846 52.6235C47.5499 52.513 47.5909 52.3898 47.6047 52.2621C47.6185 52.1345 47.6048 52.0054 47.5646 51.8835C47.5033 51.686 47.3933 51.5071 47.2446 51.3635C46.9901 51.1487 46.7115 50.9642 46.4146 50.8135C46.1114 51.1133 45.8461 51.4491 45.6246 51.8135C45.5037 52.0406 45.4751 52.3057 45.5446 52.5535C45.5763 52.6679 45.6319 52.7743 45.7078 52.8656C45.7836 52.957 45.878 53.0312 45.9846 53.0835C46.2392 53.1794 46.52 53.1794 46.7746 53.0835C47.0465 53.0109 47.2839 52.8444 47.4446 52.6135L47.4846 52.6235Z" fill="#303030"/>
<path d="M29.7939 55.3334L29.9339 48.3334H30.6439L30.5339 53.9334L33.3739 49.2734H33.7239L36.3839 54.0134L36.4839 48.4434H37.1939L37.0639 55.4434H36.4539L33.5139 50.2134L30.4039 55.3434L29.7939 55.3334Z" fill="#303030"/>
<path d="M26.3144 48.0134C26.7716 48.4492 27.0989 49.0035 27.2596 49.6145C27.4202 50.2254 27.4081 50.869 27.2244 51.4734C27.06 52.0923 26.7319 52.6554 26.2744 53.1034C25.8297 53.5404 25.2723 53.8451 24.6644 53.9834C24.0231 54.1281 23.3555 54.1074 22.7244 53.9234C22.0953 53.7698 21.5167 53.4563 21.0444 53.0134C20.5939 52.5831 20.2719 52.0361 20.1144 51.4334C19.9606 50.8104 19.9719 50.158 20.1473 49.5407C20.3227 48.9234 20.656 48.3625 21.1144 47.9134C21.5511 47.4775 22.0967 47.1667 22.6944 47.0134C23.3323 46.8691 23.9966 46.8898 24.6244 47.0734C25.2598 47.2345 25.8423 47.5585 26.3144 48.0134ZM22.9044 47.6634C22.4152 47.7773 21.9681 48.0268 21.6144 48.3834C21.246 48.7503 20.9835 49.2098 20.8544 49.7134C20.7149 50.2139 20.7149 50.7429 20.8544 51.2434C20.9723 51.7303 21.2253 52.174 21.5844 52.5234C21.9609 52.8916 22.4258 53.1568 22.9344 53.2934C23.4429 53.4229 23.9758 53.4229 24.4844 53.2934C24.9739 53.173 25.4226 52.9245 25.7844 52.5734C26.1508 52.205 26.413 51.7461 26.5444 51.2434C26.6842 50.7396 26.6842 50.2072 26.5444 49.7034C26.4164 49.2183 26.1609 48.7764 25.8044 48.4234C25.4259 48.0547 24.9567 47.7925 24.4444 47.6634C23.9405 47.5241 23.4082 47.5241 22.9044 47.6634Z" fill="#303030"/>
<path d="M15.3339 43.0135L15.6039 45.7635C15.7754 45.8367 15.9424 45.9202 16.1039 46.0135L17.7339 46.9535L18.8339 45.0135L19.4839 45.3835L15.9839 51.4135L13.7039 50.1035C13.03 49.7649 12.4984 49.1978 12.2039 48.5035C12.0952 48.1906 12.0585 47.8573 12.0966 47.5283C12.1347 47.1993 12.2466 46.8832 12.4239 46.6035C12.6564 46.1652 13.0248 45.8143 13.4739 45.6035C13.93 45.4145 14.4344 45.376 14.9139 45.4935L14.6239 42.5535L15.3339 43.0135ZM14.1939 46.1735C13.9591 46.2324 13.7385 46.3381 13.5454 46.4842C13.3524 46.6304 13.1908 46.814 13.0703 47.0241C12.9499 47.2341 12.8731 47.4664 12.8445 47.7068C12.8159 47.9473 12.8361 48.191 12.9039 48.4235C13.1383 48.941 13.5447 49.3615 14.0539 49.6135L15.6639 50.5435L17.4139 47.5435L15.8039 46.6135C15.3412 46.2667 14.7714 46.0933 14.1939 46.1235V46.1735Z" fill="#303030"/>
<path d="M9.41438 38.3234L9.86438 37.8734L13.3144 41.4234L8.31437 46.3034L4.98438 42.8634L5.44438 42.4134L8.27437 45.3234L9.98438 43.5934L7.50437 41.0134L7.98438 40.5534L10.5144 43.1534L12.3744 41.3434L9.41438 38.3234Z" fill="#303030"/>
<path d="M1.98473 34.3934L2.22473 33.0134L2.69473 33.0834L2.42473 34.5034L3.75473 34.0134L3.91473 34.4534L2.56473 34.9134L3.67473 35.8534L3.35473 36.2134L2.28473 35.2134L2.03473 36.6334L1.55473 36.5434L1.83473 35.1234L0.494727 35.6034L0.344727 35.2134L1.68473 34.7434L0.574727 33.8134L0.904727 33.4534L1.98473 34.3934Z" fill="#303030"/>
</g>
<defs>
<clipPath id="clip0_1374_36">
<rect width="68.9346" height="55.4434" fill="white"/>
</clipPath>
</defs>
</svg>
